<?xml version="1.0" encoding="UTF-8"?>
<svg version="1.1" xmlns="http://www.w3.org/2000/svg" width="1024" height="1024">
<path d="M0 0 C1.28072388 -0.00686325 2.56144775 -0.0137265 3.88098145 -0.02079773 C7.37500994 -0.03865704 10.86878629 -0.03757411 14.36284661 -0.03185534 C17.289946 -0.02875188 20.21699777 -0.034869 23.14409035 -0.04089409 C30.05622469 -0.05491501 36.96823538 -0.05339938 43.88037109 -0.04199219 C50.9866075 -0.03052304 58.09246596 -0.04457167 65.19865257 -0.07138866 C71.32125497 -0.09361993 77.44373939 -0.10016612 83.56637925 -0.09431225 C87.21361386 -0.09095796 90.8606065 -0.09325451 94.50780678 -0.11056328 C98.58096463 -0.12905155 102.65339854 -0.11476945 106.7265625 -0.09765625 C108.51386024 -0.1121582 108.51386024 -0.1121582 110.33726501 -0.12695312 C118.21704911 -0.0579277 126.68277534 0.6774592 132.93254566 6.00145817 C137.12509178 10.6396115 138.72926262 16.7487943 140.67675781 22.56445312 C153.28827062 59.98761505 181.26947593 89.43194339 216.05737305 107.40405273 C230.68311202 114.54563535 246.66574744 120.61090956 263.05737305 121.40405273 C263.05737305 121.73405273 263.05737305 122.06405273 263.05737305 122.40405273 C273.04289346 123.95053584 282.68386758 124.68553815 292.8034668 124.67749023 C294.15292802 124.686086 295.50238087 124.69609681 296.8518219 124.70742798 C302.49737031 124.752979 308.14284718 124.77833182 313.78857422 124.78491211 C317.27501337 124.78994879 320.76089794 124.81427566 324.24714851 124.8502388 C326.19233594 124.86463043 328.13764522 124.85744218 330.08287048 124.84970093 C337.20933738 124.92897853 342.01731772 125.51918765 348.05737305 129.40405273 C351.29002459 132.84526245 352.17258161 136.04915302 352.23577881 140.69718933 C352.25696526 142.01126266 352.25696526 142.01126266 352.27857971 143.35188293 C352.28904831 144.31035629 352.29951691 145.26882965 352.31030273 146.25634766 C352.32502121 147.2680603 352.33973969 148.27977295 352.35490417 149.32214355 C352.40188638 152.67622239 352.44121969 156.03032981 352.47924805 159.38452148 C352.49310799 160.53020411 352.50696793 161.67588673 352.52124786 162.856287 C352.59453022 168.921394 352.66207628 174.98653329 352.72485352 181.05175781 C352.79069974 187.31191732 352.87532465 193.57167265 352.96442795 199.8315382 C353.02963847 204.64851212 353.0810632 209.46556343 353.12876129 214.28273964 C353.15397005 216.59000091 353.18431286 218.89721213 353.21993256 221.20433617 C353.26852525 224.43785472 353.29759182 227.67100588 353.32202148 230.90478516 C353.34058701 231.85313736 353.35915253 232.80148956 353.37828064 233.77857971 C353.39717077 239.68895154 352.5828809 244.03203802 350.05737305 249.40405273 C346.44566938 252.83957573 343.84513097 254.48210012 338.91967773 254.71386719 C338.06142395 254.75489059 337.20317017 254.795914 336.31890869 254.83818054 C334.91327667 254.895924 334.91327667 254.895924 333.47924805 254.95483398 C332.50042664 254.99667313 331.52160522 255.03851227 330.51312256 255.08161926 C319.11295805 255.53186335 307.71518151 255.60327956 296.30737305 255.59155273 C294.66493622 255.59064636 294.66493622 255.59064636 292.98931885 255.58972168 C235.92839852 255.50440861 175.96504774 245.27530064 129.05737305 210.40405273 C127.85739632 209.54521908 126.65682647 208.68721381 125.45581055 207.82983398 C115.85930286 200.89652297 107.18502563 193.27155148 98.70922852 185.01342773 C97.34657408 183.68581644 95.97121624 182.37125704 94.5925293 181.06030273 C89.25845974 175.90579591 84.65627166 170.21399464 80.05737305 164.40405273 C78.8662793 162.93838867 78.8662793 162.93838867 77.65112305 161.44311523 C71.04070626 153.13825617 65.52471405 144.32764047 60.13549805 135.19067383 C59.15540362 133.56650467 58.10962493 131.98243055 57.05737305 130.40405273 C55.73737305 130.40405273 54.41737305 130.40405273 53.05737305 130.40405273 C52.64229492 131.19424805 52.2272168 131.98444336 51.79956055 132.79858398 C37.35072642 159.24780963 16.08836303 184.16800175 -7.94262695 202.40405273 C-8.7929248 203.05301514 -8.7929248 203.05301514 -9.66040039 203.71508789 C-18.12091695 210.14481061 -26.76812995 216.0244123 -35.94262695 221.40405273 C-37.08236497 222.10520133 -38.22167652 222.80704358 -39.3605957 223.50952148 C-62.75017837 237.62202389 -89.58225193 246.00420894 -116.25512695 251.21655273 C-117.22385742 251.41168457 -118.19258789 251.60681641 -119.19067383 251.80786133 C-141.81689359 255.90823033 -165.0489887 255.7337139 -187.96508789 255.66479492 C-191.84779354 255.65321802 -195.73022802 255.66011519 -199.61292458 255.67193985 C-202.6551415 255.67918776 -205.69729449 255.67686021 -208.7395134 255.67168427 C-210.17227589 255.67036532 -211.60504448 255.67193271 -213.03779984 255.67664337 C-231.42524433 255.72402851 -231.42524433 255.72402851 -237.88012695 251.46655273 C-239.94262695 249.40405273 -239.94262695 249.40405273 -241.94262695 246.40405273 C-241.94262695 245.41405273 -241.94262695 244.42405273 -241.94262695 243.40405273 C-242.60262695 243.07405273 -243.26262695 242.74405273 -243.94262695 242.40405273 C-243.90457168 228.7041012 -243.84521172 215.00442297 -243.75872421 201.30468655 C-243.71923147 194.94318555 -243.68705158 188.58182335 -243.67163086 182.22021484 C-243.65647646 176.07978815 -243.62205163 169.939743 -243.57431793 163.79948616 C-243.55949174 161.45800151 -243.55158523 159.11646239 -243.5507431 156.77493095 C-243.54837554 153.49260756 -243.52131087 150.21134038 -243.48852539 146.92919922 C-243.49355576 145.96318787 -243.49858612 144.99717651 -243.50376892 144.00189209 C-243.41046023 137.95567145 -242.52106079 134.33221451 -238.94262695 129.40405273 C-232.93889627 123.67241332 -223.60797968 124.83639778 -215.92700195 124.86499023 C-214.46501203 124.85506242 -213.0030346 124.84311333 -211.54107666 124.82925415 C-207.70536969 124.79702025 -203.86994768 124.78651409 -200.03411865 124.78240967 C-193.91121793 124.77363143 -187.78855021 124.73762733 -181.66584015 124.69023514 C-179.54786556 124.67783202 -177.43019766 124.67839249 -175.31219482 124.68051147 C-166.35272989 124.6330862 -157.50654651 124.25869259 -148.94262695 121.40405273 C-147.74766602 121.26741211 -146.55270508 121.13077148 -145.3215332 120.98999023 C-124.45392314 118.50925864 -102.54674187 108.00118093 -85.94262695 95.40405273 C-84.71672852 94.48946289 -84.71672852 94.48946289 -83.46606445 93.55639648 C-68.14985747 81.71672537 -54.77508039 68.16794294 -44.94262695 51.40405273 C-44.2465332 50.29416992 -43.55043945 49.18428711 -42.83325195 48.04077148 C-37.21749272 38.84134356 -33.50860113 29.35529319 -30.21264648 19.09692383 C-28.21586704 13.09146553 -26.24752787 7.24051974 -20.94262695 3.40405273 C-13.92400412 0.09328642 -7.68505836 -0.02888719 0 0 Z " fill="#7C8AFE" transform="translate(456.942626953125,438.595947265625)"/>
<path d="M0 0 C0.85207031 -0.02578125 1.70414063 -0.0515625 2.58203125 -0.078125 C6.63512146 0.43230915 9.00795707 1.84947692 11.65356445 4.99072266 C13.30121548 7.1894944 14.87638875 9.42649247 16.4375 11.6875 C17.59942335 13.33392439 18.76218451 14.97975784 19.92578125 16.625 C20.4873291 17.42421875 21.04887695 18.2234375 21.62744141 19.046875 C23.57646682 21.7993015 25.58929127 24.49868397 27.625 27.1875 C36.66062511 39.16341993 45.51658321 51.27302425 54.2722168 63.45483398 C57.14371613 67.44353904 60.04034772 71.41119707 62.97265625 75.35546875 C63.60300781 76.20431641 64.23335937 77.05316406 64.8828125 77.92773438 C66.09168962 79.55263719 67.30372899 81.17519414 68.51953125 82.79492188 C78.34067714 96.00069165 78.34067714 96.00069165 78.1015625 103.90234375 C76.3506082 110.31502682 72.05839655 115.43237745 68.25 120.79296875 C58.0537843 135.25513756 55.46260818 150.40382295 57.6171875 167.69921875 C60.19343055 179.61036718 66.4621871 190.79442782 76.1875 198.25 C89.13755667 206.08419335 103.16360258 208.78007482 118 205.375 C131.06821824 200.69016704 139.41234022 192.32886634 145.4375 179.9375 C150.19566067 168.0179837 150.80505311 155.74412657 151.359375 143.0703125 C151.86229702 133.57282367 152.43095486 125.41775145 159.1875 118.25 C161.509124 116.95065046 163.6656916 115.88402024 166.1015625 114.8671875 C167.11789261 114.4237072 167.11789261 114.4237072 168.15475464 113.9712677 C170.36853418 113.00924784 172.59015337 112.06703913 174.8125 111.125 C176.370924 110.45269333 177.9288621 109.77925928 179.48632812 109.10473633 C184.04579616 107.13516599 188.61561858 105.19053942 193.1875 103.25 C194.33186523 102.76225098 195.47623047 102.27450195 196.65527344 101.77197266 C201.72517983 99.61233047 206.80174056 97.4691614 211.8828125 95.3359375 C217.74396562 92.8692356 223.5884125 90.36494253 229.4296875 87.8515625 C230.34208191 87.45924942 231.25447632 87.06693634 232.19451904 86.66273499 C235.86959747 85.0823211 239.54465898 83.50189144 243.2175293 81.91635132 C248.33511892 79.70734013 253.46000789 77.51704798 258.59558105 75.35015869 C260.36821312 74.59775222 262.1377034 73.83791219 263.90441895 73.07171631 C266.58802806 71.90917756 269.28087814 70.77092587 271.9765625 69.63671875 C272.78378754 69.28076126 273.59101257 68.92480377 274.42269897 68.55805969 C279.86494508 66.30636942 283.41373165 65.93948849 289.1875 67.25 C293.52319525 69.85141715 295.22410236 72.65815031 297.1875 77.25 C297.57061005 80.26169395 297.57061005 80.26169395 297.58190918 83.49838257 C297.59325897 84.73194992 297.60460876 85.96551727 297.61630249 87.23646545 C297.61365956 88.59042424 297.61068841 89.94438242 297.60742188 91.29833984 C297.6147671 92.73450885 297.62335465 94.17067197 297.63308716 95.60682678 C297.65526505 99.49743292 297.65823571 103.38782702 297.65633965 107.27848768 C297.65621976 110.53134838 297.66479112 113.78416445 297.67311716 117.0370127 C297.69233805 124.71415868 297.69523995 132.39119593 297.68847656 140.06835938 C297.68183743 147.97672681 297.70469773 155.88462763 297.74179029 163.79290044 C297.77252321 170.59311744 297.78384342 177.39318462 297.77995348 184.19346964 C297.77788957 188.25037297 297.78330927 192.30691317 297.80784607 196.36375046 C297.83017031 200.18071338 297.82818919 203.99691972 297.80791855 207.81388664 C297.80451837 209.21023717 297.80955483 210.60663919 297.82390213 212.00292015 C297.8995004 219.90913976 297.74549336 226.21344842 292.1875 232.25 C288.05063242 235.37787548 284.18457182 236.37390937 279.06314009 236.3776505 C278.24319694 236.38066647 277.42325379 236.38368244 276.57846388 236.3867898 C275.681309 236.38502033 274.78415413 236.38325086 273.85981274 236.38142776 C272.89998666 236.3834804 271.94016057 236.38553303 270.95124885 236.38764787 C267.71017758 236.393337 264.46914854 236.39185826 261.22807312 236.39044189 C258.89084744 236.39302443 256.5536222 236.39603727 254.21639758 236.3994453 C248.4506841 236.40668251 242.68498172 236.40921855 236.91926402 236.40977435 C230.01483485 236.41068759 223.11041425 236.41735392 216.20598877 236.42412117 C199.51821532 236.44018691 182.83044277 236.4460849 166.14266298 236.45086992 C158.25042222 236.45320508 150.35818218 236.45680761 142.46594198 236.4605653 C115.45689547 236.47340068 88.44784936 236.48412038 61.43879986 236.4875679 C59.74310879 236.48778954 58.04741771 236.48801132 56.35172664 236.48823325 C54.65191362 236.48845389 52.95210059 236.48867438 51.25228757 236.4888947 C47.84210122 236.48933726 44.43191487 236.48978437 41.02172852 236.49023438 C40.17619957 236.49034377 39.33067062 236.49045316 38.45951958 236.49056586 C11.03464211 236.49419762 -16.39020895 236.51012221 -43.81507631 236.53342474 C-72.80167776 236.55800929 -101.78826411 236.57174008 -130.7748763 236.57293582 C-133.95555604 236.57310728 -137.13623577 236.57332271 -140.31691551 236.57357025 C-141.10010387 236.57362602 -141.88329223 236.57368179 -142.69021357 236.57373925 C-155.30459927 236.57489083 -167.91895791 236.58592179 -180.53333446 236.60045731 C-193.20700419 236.61480888 -205.88063915 236.61806686 -218.55431477 236.61001733 C-225.42292014 236.60594829 -232.29144223 236.60669859 -239.16003609 236.62107468 C-245.44371576 236.63375001 -251.72723498 236.63267231 -258.01091423 236.62048396 C-260.28816004 236.61851589 -262.56541697 236.62165617 -264.84264711 236.63032833 C-267.93105784 236.6413481 -271.01889502 236.63398411 -274.10728931 236.6219368 C-275.44248638 236.63332959 -275.44248638 236.63332959 -276.80465713 236.64495254 C-283.59877523 236.58749198 -288.3051675 235.367303 -293.625 230.875 C-297.27737336 226.49215197 -298.06224392 222.82300787 -298.07319641 217.18434143 C-298.08028122 215.96608673 -298.08736603 214.74783203 -298.09466553 213.49266052 C-298.09237193 212.15078698 -298.08986226 210.80891379 -298.0871582 209.46704102 C-298.09150756 208.04748263 -298.09669146 206.62792659 -298.10264587 205.20837402 C-298.11602281 201.35918993 -298.11661603 197.51010411 -298.11408257 193.66090131 C-298.11301202 190.4451932 -298.11789838 187.2295049 -298.122688 184.01380104 C-298.13377857 176.42642191 -298.13422306 168.83909229 -298.12817383 161.25170898 C-298.12213297 153.42921316 -298.13444885 145.60689715 -298.1557439 137.78443199 C-298.17336685 131.06326228 -298.17936018 124.34214976 -298.17610615 117.62095779 C-298.17429432 113.60890973 -298.17691948 109.59698995 -298.19082069 105.58496284 C-298.20340584 101.81167661 -298.20144862 98.03867048 -298.18840981 94.26538849 C-298.18604599 92.8827168 -298.18877178 91.50002536 -298.19703293 90.11737633 C-298.20751748 88.22582422 -298.19758758 86.33419216 -298.1867218 84.44264221 C-298.18688954 83.3853872 -298.18705729 82.32813219 -298.18723011 81.23883915 C-297.56090013 76.24324496 -295.56496787 73.03746637 -292.125 69.4375 C-288.33969238 66.93776855 -285.28047005 66.14588717 -280.8125 66.25 C-277.69495469 66.98930877 -274.8629278 68.20736215 -271.9375 69.5 C-271.07946777 69.86134033 -270.22143555 70.22268066 -269.33740234 70.5949707 C-267.47025968 71.3836632 -265.60659315 72.18062477 -263.74609375 72.98486328 C-260.76622201 74.26995777 -257.77581131 75.52689393 -254.78125 76.77734375 C-241.86006415 82.18567364 -229.00511585 87.74751066 -216.15820312 93.3293457 C-207.429321 97.12136758 -198.68729399 100.88150402 -189.9375 104.625 C-187.63667918 105.61188693 -185.33589634 106.59886239 -183.03515625 107.5859375 C-179.25597394 109.20665063 -175.47291116 110.81720615 -171.68359375 112.4140625 C-170.24732306 113.02587085 -168.81111818 113.63783374 -167.375 114.25 C-166.20066406 114.745 -165.02632812 115.24 -163.81640625 115.75 C-158.2060037 118.55155342 -155.07257055 121.32875597 -152.8125 127.25 C-152.24587618 130.09178085 -151.9836588 132.92630324 -151.75 135.8125 C-151.63277588 137.04347412 -151.63277588 137.04347412 -151.51318359 138.29931641 C-151.09263998 142.76516932 -150.73440969 147.23500642 -150.38671875 151.70703125 C-149.08833684 167.79310207 -146.80907249 184.11008073 -133.8125 195.25 C-121.49980985 205.58289636 -109.47288139 207.42410808 -93.8125 206.25 C-82.63027899 204.17726246 -72.83343934 196.72697252 -66.3046875 187.58984375 C-58.18529334 174.85812359 -54.31989893 160.19120218 -57.21972656 145.13574219 C-60.22632623 132.60534706 -66.40378728 122.89801729 -74.078125 112.6953125 C-77.457838 107.93022165 -78.65396528 104.14025696 -77.8125 98.25 C-75.96202812 92.41750002 -72.10377797 87.96874221 -68.265625 83.3203125 C-65.25518464 79.55246835 -62.43703312 75.66705861 -59.625 71.75 C-59.06941406 70.97664307 -58.51382813 70.20328613 -57.94140625 69.40649414 C-56.79809752 67.81302395 -55.65552589 66.21902466 -54.51367188 64.62451172 C-46.22155332 53.05029457 -37.84891727 41.53738709 -29.3828125 30.08984375 C-26.9051082 26.73801854 -24.44386765 23.37481066 -21.9921875 20.00390625 C-21.36562256 19.14531006 -20.73905762 18.28671387 -20.09350586 17.40209961 C-18.89815671 15.76350088 -17.70605628 14.12252535 -16.51782227 12.47875977 C-7.49234326 0.13479478 -7.49234326 0.13479478 0 0 Z " fill="#E234FE" transform="translate(511.8125,156.75)"/>
<path d="M0 0 C0.83635986 0.00572021 1.67271973 0.01144043 2.53442383 0.01733398 C9.22521782 0.21073212 14.18090725 1.44523149 19.625 5.5 C20.69427734 6.26183594 20.69427734 6.26183594 21.78515625 7.0390625 C28.83800533 12.60224439 34.1139713 20.58493067 35.625 29.5 C36.5746824 40.51038032 34.98344366 50.27157137 28.4375 59.375 C21.85849521 67.15146818 12.93228529 72.17660573 2.8125 73.3125 C-8.54593342 73.97814385 -16.34335091 70.63936702 -25.5625 64.3125 C-33.17338309 56.70161691 -37.29036431 46.74398419 -37.75 36 C-37.26196489 25.45093329 -33.49321736 17.27547436 -26.375 9.5 C-18.57127611 2.82468914 -10.18027099 -0.08103188 0 0 Z " fill="#B35AFE" transform="translate(711.375,418.5)"/>
<path d="M0 0 C7.52756542 7.57432049 11.14886933 16.54059162 11.26171875 27.1484375 C11.0774327 38.8160479 7.21898751 47.19276714 -0.703125 55.58203125 C-7.72353508 62.20599465 -16.24229773 64.6071073 -25.7421875 65.0546875 C-36.78160415 64.54301118 -45.43870948 60.0183232 -52.85546875 52.01953125 C-59.75062182 43.52923083 -62.06314576 34.69307858 -61.5546875 23.87109375 C-60.4480449 13.91131032 -55.91132 5.25104539 -48.11328125 -1.1015625 C-32.30876658 -10.79232149 -15.06847539 -12.04255437 0 0 Z " fill="#B459FE" transform="translate(338.11328125,427.1015625)"/>
<path d="M0 0 C0 0.99 0 1.98 0 3 C-5.44054872 7.20406038 -9.21127125 8.12546224 -15.94265366 8.12304783 C-17.16632291 8.12503888 -18.38999216 8.12702993 -19.65074229 8.12908131 C-21.01063096 8.12622828 -22.37051943 8.12328268 -23.73040771 8.12025452 C-25.17341546 8.12069048 -26.61642312 8.12156585 -28.05943036 8.12284368 C-32.02955231 8.12508371 -35.99964738 8.12107404 -39.9697659 8.11606562 C-44.24921751 8.11175429 -48.52866756 8.11320803 -52.80812073 8.1139679 C-60.22418325 8.1144927 -67.64023699 8.11135047 -75.0562973 8.10573006 C-85.77872618 8.09760913 -96.5011508 8.09499923 -107.22358242 8.09374207 C-124.6192722 8.09155248 -142.01495729 8.08489492 -159.41064453 8.07543945 C-176.3107094 8.06626292 -193.21077299 8.05918327 -210.11083984 8.05493164 C-211.67295569 8.05453756 -211.67295569 8.05453756 -213.26662943 8.05413551 C-218.49098775 8.05283049 -223.71534608 8.05156678 -228.93970442 8.05032361 C-272.29313952 8.0399539 -315.64656952 8.02233812 -359 8 C-358.67 7.34 -358.34 6.68 -358 6 C-357.26803685 6.00075944 -356.5360737 6.00151888 -355.78192985 6.00230134 C-312.41767328 6.0470395 -269.05341921 6.08136402 -225.68914419 6.10213066 C-220.48449452 6.10463213 -215.27984491 6.10722077 -210.07519531 6.10986328 C-209.03902585 6.1103879 -208.00285639 6.11091252 -206.93528785 6.11145304 C-190.14899804 6.12016004 -173.3627219 6.13593164 -156.5764402 6.15430559 C-139.35728312 6.17299642 -122.13813322 6.18411499 -104.91896641 6.18817699 C-94.29042104 6.19092374 -83.6619143 6.19960496 -73.03338082 6.21583293 C-65.74894647 6.22638973 -58.46453216 6.22960359 -51.18009071 6.22700275 C-46.97486755 6.22571943 -42.769712 6.22771234 -38.56450081 6.23841095 C-34.71527119 6.24813253 -30.86615477 6.24864202 -27.01691999 6.24179779 C-25.62381883 6.24095169 -24.23071065 6.24349802 -22.83762334 6.24976636 C-20.94427036 6.25779087 -19.05087448 6.25227214 -17.15751457 6.24609566 C-15.5797766 6.24723482 -15.5797766 6.24723482 -13.97016513 6.24839699 C-10.72182079 5.97673568 -8.05728031 5.09857142 -5 4 C-4.34 4 -3.68 4 -3 4 C-2.67 3.01 -2.34 2.02 -2 1 C-1.34 0.67 -0.68 0.34 0 0 Z " fill="#CB3FFB" transform="translate(805,385)"/>
<path d="M0 0 C1.28355881 -0.00095673 2.56711761 -0.00191345 3.88957214 -0.00289917 C6.58646875 -0.00436221 9.28333193 -0.00226511 11.98022461 0.00244141 C15.42767622 0.00816671 18.87505043 0.00483325 22.32249928 -0.00113106 C25.63167236 -0.00561821 28.94082473 -0.00247579 32.25 0 C33.48337601 -0.00202423 34.71675201 -0.00404846 35.98750305 -0.00613403 C37.13607285 -0.00298187 38.28464264 0.00017029 39.46801758 0.00341797 C40.47488113 0.00421356 41.48174469 0.00500916 42.51911926 0.00582886 C45.21105428 0.12906255 47.67080661 0.52892152 50.29296875 1.1328125 C50.29296875 1.4628125 50.29296875 1.7928125 50.29296875 2.1328125 C37.58045707 3.17947278 24.91296122 3.28740873 12.16308594 3.26318359 C8.77143985 3.25777819 5.37992357 3.26318352 1.98828125 3.26953125 C-0.19140654 3.26887113 -2.37109425 3.26759133 -4.55078125 3.265625 C-6.05408997 3.26866135 -6.05408997 3.26866135 -7.58776855 3.27175903 C-13.05431553 3.25359755 -18.29863311 2.93799537 -23.70703125 2.1328125 C-23.70703125 1.8028125 -23.70703125 1.4728125 -23.70703125 1.1328125 C-15.79200284 0.13935354 -7.97033026 -0.01318923 0 0 Z " fill="#4BBDFC" transform="translate(743.70703125,690.8671875)"/>
<path d="M0 0 C3.125 1.5 3.125 1.5 5 3 C4.67 3.66 4.34 4.32 4 5 C3.38125 4.505 2.7625 4.01 2.125 3.5 C-2.26029741 1.39505724 -6.21713261 1.74924773 -11 2 C-11.226875 2.70125 -11.45375 3.4025 -11.6875 4.125 C-13.3513521 7.7696284 -15.23001309 10.09489178 -18 13 C-18.99 13 -19.98 13 -21 13 C-16.30869561 2.83550715 -11.32225828 -1.44776417 0 0 Z " fill="#E128E7" transform="translate(517,157)"/>
<path d="M0 0 C0.33 0.99 0.66 1.98 1 3 C-1.65669017 7.70029798 -5.06728273 12.53364137 -10 15 C-8.37815499 11.41486894 -6.20743761 8.41007677 -3.875 5.25 C-3.15054687 4.26515625 -2.42609375 3.2803125 -1.6796875 2.265625 C-1.12539063 1.51796875 -0.57109375 0.7703125 0 0 Z " fill="#EB2CF3" transform="translate(457,222)"/>
<path d="M0 0 C6.9113364 0.47122748 12.72204161 3.20636006 19 6 C13.41931192 7.86022936 7.51455949 4.70505356 2.375 2.3125 C1.59125 1.879375 0.8075 1.44625 0 1 C0 0.67 0 0.34 0 0 Z " fill="#E92BF2" transform="translate(314,260)"/>
<path d="M0 0 C0 0.66 0 1.32 0 2 C-0.99 2.33 -1.98 2.66 -3 3 C-3.33 2.34 -3.66 1.68 -4 1 C-2 0 -2 0 0 0 Z M-6 2 C-5.34 2 -4.68 2 -4 2 C-4.33 2.99 -4.66 3.98 -5 5 C-5.66 4.34 -6.32 3.68 -7 3 C-6.67 2.67 -6.34 2.34 -6 2 Z M-9 4 C-8.34 4.33 -7.68 4.66 -7 5 C-7.42152344 5.48210937 -7.84304688 5.96421875 -8.27734375 6.4609375 C-8.82519531 7.09257812 -9.37304688 7.72421875 -9.9375 8.375 C-10.48277344 9.00148438 -11.02804687 9.62796875 -11.58984375 10.2734375 C-13.06958624 11.95632334 -13.06958624 11.95632334 -14 14 C-14.66 14 -15.32 14 -16 14 C-14.33248852 10.05860922 -11.77289351 7.2107188 -9 4 Z " fill="#C152FC" transform="translate(696,422)"/>
<path d="M0 0 C2.09375 0.13671875 2.09375 0.13671875 4.5 0.6875 C5.2940625 0.85636719 6.088125 1.02523437 6.90625 1.19921875 C9 2 9 2 11 5 C6.428721 4.45144652 2.32564205 3.58255197 -2 2 C-1.34 1.34 -0.68 0.68 0 0 Z " fill="#50BBFD" transform="translate(651,678)"/>
<path d="M0 0 C0.66 0.66 1.32 1.32 2 2 C1.34 3.32 0.68 4.64 0 6 C-0.66 6 -1.32 6 -2 6 C-1.49396008 3.83125748 -1.00016187 2.00032373 0 0 Z M-3 6 C-2.34 6.33 -1.68 6.66 -1 7 C-1.33 8.32 -1.66 9.64 -2 11 C-2.99 11 -3.98 11 -5 11 C-4.34 9.35 -3.68 7.7 -3 6 Z " fill="#BF58FD" transform="translate(432,446)"/>
<path d="M0 0 C0.77601563 0.07605469 1.55203125 0.15210938 2.3515625 0.23046875 C4.375 0.8125 4.375 0.8125 6.375 3.8125 C-1.05 2.8225 -1.05 2.8225 -8.625 1.8125 C-4.76854025 -0.11572987 -3.96630005 -0.45765001 0 0 Z " fill="#50BEFD" transform="translate(691.625,687.1875)"/>
<path d="M0 0 C0.33 0.66 0.66 1.32 1 2 C-0.98 4.97 -2.96 7.94 -5 11 C-5.33 10.01 -5.66 9.02 -6 8 C-4.78515625 5.95703125 -4.78515625 5.95703125 -3.0625 3.8125 C-2.49660156 3.09707031 -1.93070312 2.38164062 -1.34765625 1.64453125 C-0.90292969 1.10183594 -0.45820313 0.55914062 0 0 Z " fill="#EC2DF4" transform="translate(446,237)"/>
<path d="M0 0 C2.97 0.33 5.94 0.66 9 1 C8.67 1.66 8.34 2.32 8 3 C5.69 3 3.38 3 1 3 C0.67 2.01 0.34 1.02 0 0 Z " fill="#C64EFB" transform="translate(311,418)"/>
<path d="M0 0 C0.75 1.75 0.75 1.75 1 4 C-0.8125 6.25 -0.8125 6.25 -3 8 C-3.66 8 -4.32 8 -5 8 C-3.62845496 5.04590299 -2.01136276 2.55991624 0 0 Z " fill="#A86AFD" transform="translate(402,504)"/>
<path d="M0 0 C1.86323318 0.25288812 3.71708432 0.57690153 5.5625 0.9375 C6.57441406 1.13214844 7.58632813 1.32679688 8.62890625 1.52734375 C9.80259766 1.76130859 9.80259766 1.76130859 11 2 C11 2.33 11 2.66 11 3 C9.37536158 3.05395478 7.75021459 3.09277195 6.125 3.125 C5.22007812 3.14820313 4.31515625 3.17140625 3.3828125 3.1953125 C1 3 1 3 -1 1 C-0.67 0.67 -0.34 0.34 0 0 Z " fill="#D33EF9" transform="translate(393,362)"/>
<path d="M0 0 C6.75 0.75 6.75 0.75 9 3 C6 4 6 4 2.8125 2.5625 C1.884375 2.046875 0.95625 1.53125 0 1 C0 0.67 0 0.34 0 0 Z " fill="#EC2AF2" transform="translate(244,230)"/>
<path d="M0 0 C2.64 0 5.28 0 8 0 C6.68 1.32 5.36 2.64 4 4 C2.68 2.68 1.36 1.36 0 0 Z " fill="#D43EF9" transform="translate(405,364)"/>
<path d="M0 0 C0.33 0.66 0.66 1.32 1 2 C-0.65 3.65 -2.3 5.3 -4 7 C-3.6875 4.625 -3.6875 4.625 -3 2 C-2.01 1.34 -1.02 0.68 0 0 Z " fill="#F02BF5" transform="translate(472,203)"/>
<path d="" fill="#8C8EFE" transform="translate(0,0)"/>
<path d="M0 0 C2 1 2 1 2 1 Z " fill="#CB51FE" transform="translate(698,418)"/>
<path d="" fill="#6F7370" transform="translate(0,0)"/>
<path d="" fill="#6D7876" transform="translate(0,0)"/>
<path d="" fill="#5BC2F6" transform="translate(0,0)"/>
<path d="" fill="#54C3FB" transform="translate(0,0)"/>
<path d="" fill="#55C6FC" transform="translate(0,0)"/>
<path d="" fill="#59C4FD" transform="translate(0,0)"/>
<path d="" fill="#5ABFFC" transform="translate(0,0)"/>
<path d="" fill="#61BAFC" transform="translate(0,0)"/>
<path d="" fill="#61B8FE" transform="translate(0,0)"/>
<path d="" fill="#61B9FB" transform="translate(0,0)"/>
<path d="" fill="#63B8FC" transform="translate(0,0)"/>
<path d="" fill="#65B3FD" transform="translate(0,0)"/>
<path d="" fill="#66B2FC" transform="translate(0,0)"/>
<path d="" fill="#68B1FD" transform="translate(0,0)"/>
<path d="" fill="#6DABFF" transform="translate(0,0)"/>
<path d="" fill="#77A5FF" transform="translate(0,0)"/>
<path d="" fill="#74A7F6" transform="translate(0,0)"/>
<path d="" fill="#7E9EFF" transform="translate(0,0)"/>
<path d="" fill="#7E9AFB" transform="translate(0,0)"/>
<path d="" fill="#8099FF" transform="translate(0,0)"/>
<path d="" fill="#8696FF" transform="translate(0,0)"/>
<path d="" fill="#859AF9" transform="translate(0,0)"/>
<path d="" fill="#8991F4" transform="translate(0,0)"/>
<path d="" fill="#8893F6" transform="translate(0,0)"/>
<path d="" fill="#8C93F8" transform="translate(0,0)"/>
<path d="" fill="#8A8FFB" transform="translate(0,0)"/>
<path d="" fill="#8E8DFC" transform="translate(0,0)"/>
<path d="" fill="#8D8BFE" transform="translate(0,0)"/>
<path d="" fill="#908BFE" transform="translate(0,0)"/>
<path d="" fill="#9686FD" transform="translate(0,0)"/>
<path d="" fill="#9781FF" transform="translate(0,0)"/>
<path d="" fill="#9E7BFE" transform="translate(0,0)"/>
<path d="" fill="#9E7BFF" transform="translate(0,0)"/>
<path d="" fill="#A17AFD" transform="translate(0,0)"/>
<path d="" fill="#A377FD" transform="translate(0,0)"/>
<path d="" fill="#A873FD" transform="translate(0,0)"/>
<path d="" fill="#AA6DFD" transform="translate(0,0)"/>
<path d="" fill="#AF6EFF" transform="translate(0,0)"/>
<path d="" fill="#A973FD" transform="translate(0,0)"/>
<path d="" fill="#A971F9" transform="translate(0,0)"/>
<path d="" fill="#AA70FC" transform="translate(0,0)"/>
<path d="" fill="#AB70FD" transform="translate(0,0)"/>
<path d="" fill="#AE71FC" transform="translate(0,0)"/>
<path d="" fill="#B764FC" transform="translate(0,0)"/>
<path d="" fill="#B864FD" transform="translate(0,0)"/>
<path d="" fill="#B964FF" transform="translate(0,0)"/>
<path d="" fill="#B06CF9" transform="translate(0,0)"/>
<path d="" fill="#B16AF8" transform="translate(0,0)"/>
<path d="" fill="#B965FD" transform="translate(0,0)"/>
<path d="" fill="#B168F8" transform="translate(0,0)"/>
<path d="" fill="#B267F9" transform="translate(0,0)"/>
<path d="" fill="#BB64FE" transform="translate(0,0)"/>
<path d="" fill="#BC61FD" transform="translate(0,0)"/>
<path d="" fill="#C15EFD" transform="translate(0,0)"/>
<path d="" fill="#BD60F9" transform="translate(0,0)"/>
<path d="" fill="#C659FF" transform="translate(0,0)"/>
<path d="" fill="#C85AFB" transform="translate(0,0)"/>
<path d="" fill="#C159FB" transform="translate(0,0)"/>
<path d="" fill="#C25AFB" transform="translate(0,0)"/>
<path d="" fill="#C356F8" transform="translate(0,0)"/>
<path d="" fill="#C84FFD" transform="translate(0,0)"/>
<path d="" fill="#CB50FC" transform="translate(0,0)"/>
<path d="" fill="#C850FE" transform="translate(0,0)"/>
<path d="" fill="#CB52FD" transform="translate(0,0)"/>
<path d="" fill="#D249F8" transform="translate(0,0)"/>
<path d="" fill="#D249FB" transform="translate(0,0)"/>
<path d="" fill="#D24AFC" transform="translate(0,0)"/>
<path d="" fill="#D448FD" transform="translate(0,0)"/>
<path d="" fill="#D649FD" transform="translate(0,0)"/>
<path d="" fill="#D948FE" transform="translate(0,0)"/>
<path d="" fill="#DA48FF" transform="translate(0,0)"/>
<path d="" fill="#D948FE" transform="translate(0,0)"/>
<path d="" fill="#DB48FE" transform="translate(0,0)"/>
<path d="" fill="#D849FE" transform="translate(0,0)"/>
<path d="" fill="#D849FE" transform="translate(0,0)"/>
<path d="" fill="#D848FD" transform="translate(0,0)"/>
<path d="" fill="#DA47FF" transform="translate(0,0)"/>
<path d="" fill="#D948FF" transform="translate(0,0)"/>
<path d="" fill="#D748FD" transform="translate(0,0)"/>
<path d="" fill="#D647FF" transform="translate(0,0)"/>
<path d="" fill="#D04CF8" transform="translate(0,0)"/>
<path d="" fill="#D044EB" transform="translate(0,0)"/>
<path d="" fill="#DA43FA" transform="translate(0,0)"/>
<path d="" fill="#D842FC" transform="translate(0,0)"/>
<path d="" fill="#DA40FA" transform="translate(0,0)"/>
<path d="" fill="#D841FB" transform="translate(0,0)"/>
<path d="" fill="#D642F8" transform="translate(0,0)"/>
<path d="" fill="#D942F8" transform="translate(0,0)"/>
<path d="" fill="#DD40FA" transform="translate(0,0)"/>
<path d="" fill="#D640ED" transform="translate(0,0)"/>
<path d="" fill="#E23FFB" transform="translate(0,0)"/>
<path d="" fill="#DB3DED" transform="translate(0,0)"/>
<path d="" fill="#E33BF6" transform="translate(0,0)"/>
<path d="" fill="#DC3CEC" transform="translate(0,0)"/>
<path d="" fill="#E63DF8" transform="translate(0,0)"/>
<path d="" fill="#DE3AEB" transform="translate(0,0)"/>
<path d="" fill="#DD37E7" transform="translate(0,0)"/>
<path d="" fill="#DD37E3" transform="translate(0,0)"/>
<path d="" fill="#E334EC" transform="translate(0,0)"/>
<path d="" fill="#E330EB" transform="translate(0,0)"/>
<path d="" fill="#E034E6" transform="translate(0,0)"/>
<path d="" fill="#E132E5" transform="translate(0,0)"/>
<path d="" fill="#D434D9" transform="translate(0,0)"/>
<path d="" fill="#DF2FE4" transform="translate(0,0)"/>
<path d="" fill="#DC2FE2" transform="translate(0,0)"/>
<path d="" fill="#D531DA" transform="translate(0,0)"/>
<path d="" fill="#DA2EDB" transform="translate(0,0)"/>
<path d="" fill="#CE2CCF" transform="translate(0,0)"/>
</svg>
